<svg xmlns="http://www.w3.org/2000/svg" viewBox="0 0 64 64">
  <rect width="64" height="64" fill="#ffffff"/>
  <g fill="none" stroke="#000000" stroke-width="3" stroke-linejoin="round" stroke-linecap="round">
    <path d="M32 14 C 27 10, 16 9, 8 11 L 8 47 C 16 45, 27 46, 32 50 C 37 46, 48 45, 56 47 L 56 11 C 48 9, 37 10, 32 14 Z"/>
    <path d="M32 14 L 32 50"/>
    <path d="M13 18 C 18 16.5, 24 17, 28 19.5"/>
    <path d="M13 25 C 18 23.5, 24 24, 28 26.5"/>
    <path d="M13 32 C 18 30.5, 24 31, 28 33.5"/>
    <path d="M36 19.5 C 40 17, 46 16.5, 51 18"/>
    <path d="M36 26.5 C 40 24, 46 23.5, 51 25"/>
    <path d="M36 33.5 C 40 31, 46 30.5, 51 32"/>
  </g>
</svg>
